<svg width="32" height="33" viewBox="0 0 32 33" fill="none" xmlns="http://www.w3.org/2000/svg">
<g clip-path="url(#clip0_2035_37724)">
<path d="M16 32.9943C24.8366 32.9943 32 25.8308 32 16.9943C32 8.15771 24.8366 0.994263 16 0.994263C7.16344 0.994263 0 8.15771 0 16.9943C0 25.8308 7.16344 32.9943 16 32.9943Z" fill="#0052B4"/>
<path d="M16.001 26.7331L15.4829 25.1388H13.8066L15.1629 24.1535L14.6448 22.5593L16.001 23.5446L17.3572 22.5593L16.8391 24.1535L18.1953 25.1388H16.519L16.001 26.7331Z" fill="#FFDA44"/>
<path d="M22.8869 23.8807L21.3932 23.1197L20.2078 24.305L20.4701 22.6493L18.9766 21.8883L20.6322 21.626L20.8944 19.9703L21.6554 21.464L23.3111 21.2017L22.1257 22.3871L22.8869 23.8807Z" fill="#FFDA44"/>
<path d="M9.11559 23.8807L9.87666 22.387L8.69141 21.2017L10.3471 21.464L11.108 19.9703L11.3703 21.626L13.026 21.8883L11.5325 22.6493L11.7947 24.305L10.6093 23.1196L9.11559 23.8807Z" fill="#FFDA44"/>
<path d="M25.7402 16.9941L24.1459 17.5121V19.1885L23.1606 17.8322L21.5664 18.3503L22.5517 16.9941L21.5664 15.6379L23.1607 16.1559L24.1459 14.7997V16.4761L25.7402 16.9941Z" fill="#FFDA44"/>
<path d="M6.26172 16.9941L7.85603 16.476V14.7997L8.84128 16.1559L10.4357 15.6379L9.45022 16.9941L10.4357 18.3503L8.84128 17.8323L7.85603 19.1885V17.5121L6.26172 16.9941Z" fill="#FFDA44"/>
<path d="M22.8869 10.1074L22.1258 11.6012L23.3111 12.7865L21.6554 12.5241L20.8944 14.0178L20.6322 12.3621L18.9766 12.0998L20.4701 11.3388L20.2078 9.68323L21.3932 10.8685L22.8869 10.1074Z" fill="#FFDA44"/>
<path d="M9.11559 10.1075L10.6093 10.8685L11.7947 9.68323L11.5323 11.3389L13.026 12.0999L11.3703 12.3622L11.1081 14.0179L10.347 12.5242L8.69141 12.7865L9.87672 11.6012L9.11559 10.1075Z" fill="#FFDA44"/>
<path d="M16.001 7.255L16.5191 8.84932H18.1953L16.8391 9.83464L17.3572 11.429L16.001 10.4436L14.6448 11.429L15.1628 9.83464L13.8066 8.84932H15.4829L16.001 7.255Z" fill="#FFDA44"/>
</g>
<defs>
<clipPath id="clip0_2035_37724">
<rect width="32" height="32" fill="white" transform="translate(0 0.994263)"/>
</clipPath>
</defs>
</svg>
