<svg width="24" height="24" viewBox="0 0 24 24" fill="none" xmlns="http://www.w3.org/2000/svg">
<g clip-path="url(#clip0_293_48910)">
<mask id="mask0_293_48910" style="mask-type:alpha" maskUnits="userSpaceOnUse" x="0" y="0" width="24" height="24">
<circle cx="12" cy="12" r="12" fill="white"/>
</mask>
<g mask="url(#mask0_293_48910)">
<circle cx="12" cy="12" r="12" fill="white"/>
<path d="M7 3.5H17" stroke="#D22F27" stroke-width="2" stroke-linecap="round"/>
<path d="M22.4496 14.9443C23.4401 14.5147 24.2698 13.2747 24.486 13.0092C25.0197 12.3527 25.5536 9.76799 23.7847 8.08694C23.5326 7.85385 23.2495 7.6567 22.9435 7.50107C21.2158 6.59095 21.2158 7.19878 21.2158 7.19878C21.3617 7.21757 21.502 7.26713 21.6273 7.34418C21.7527 7.42123 21.8602 7.52401 21.9428 7.64573C22.3061 8.09268 21.9428 8.09268 21.2158 8.53963C20.4888 8.98659 20.8524 9.88083 20.4888 10.3274C20.1252 10.7744 19.7618 10.7744 20.1255 11.2213C20.4889 11.6683 21.6674 10.52 21.6674 10.52L21.6697 10.5181C21.8426 10.6794 22.0693 10.7706 22.3058 10.7742C22.6039 10.7432 22.8797 10.6022 23.0792 10.3786C23.2788 10.1551 23.3878 9.86509 23.3848 9.56543C23.4215 9.56627 23.4576 9.5748 23.4907 9.59048C23.5239 9.60616 23.5534 9.62863 23.5773 9.65644C23.9398 10.1023 23.6134 11.0963 21.0516 12.3287C17.7341 13.9246 17.8895 17.1225 18.0888 18.3529C18.1373 18.6538 18.2366 18.9441 18.3824 19.2117C18.4774 19.3854 18.5745 19.5537 18.6721 19.7132C19.004 20.3359 19.5028 20.8539 20.1124 21.2091C20.7221 21.5644 21.4187 21.7429 22.124 21.7247C23.6092 21.7247 24.8173 20.2632 24.8483 18.4457C24.849 18.402 24.8446 18.359 24.8421 18.3156C24.7718 19.842 23.7462 21.0541 22.4874 21.0541C22.4449 21.0541 22.4034 21.0489 22.3616 21.0462C22.3263 21.0447 22.2913 21.0438 22.2563 21.0398C21.0604 20.8968 20.1259 19.6574 20.1259 18.1486C20.1527 17.4443 20.3878 16.7638 20.8016 16.1932C21.2153 15.6226 21.7891 15.1876 22.4502 14.9432L22.4496 14.9443Z" fill="#9B9B9A" stroke="#9B9B9A" stroke-width="0.4" stroke-linecap="round" stroke-linejoin="round"/>
<path d="M1.55042 14.9443C0.55989 14.5147 -0.269826 13.2747 -0.486039 13.0092C-1.01975 12.3527 -1.55359 9.76799 0.2153 8.08694C0.467393 7.85385 0.750467 7.6567 1.0565 7.50107C2.78418 6.59095 2.78418 7.19878 2.78418 7.19878C2.63826 7.21757 2.498 7.26713 2.37267 7.34418C2.24734 7.42123 2.1398 7.52401 2.05716 7.64573C1.69386 8.09268 2.05716 8.09268 2.78418 8.53963C3.51119 8.98659 3.14755 9.88083 3.51119 10.3274C3.87477 10.7744 4.23821 10.7744 3.8745 11.2213C3.51112 11.6683 2.33263 10.52 2.33263 10.52L2.33033 10.5181C2.15735 10.6794 1.93065 10.7706 1.6942 10.7742C1.39612 10.7432 1.12032 10.6022 0.92075 10.3786C0.721182 10.1551 0.612211 9.86509 0.615159 9.56543C0.578498 9.56627 0.542422 9.5748 0.509272 9.59048C0.476121 9.60616 0.446636 9.62863 0.422729 9.65644C0.0602345 10.1023 0.386576 11.0963 2.94837 12.3287C6.26588 13.9246 6.11048 17.1225 5.91115 18.3529C5.86269 18.6538 5.76342 18.9441 5.61758 19.2117C5.52265 19.3854 5.42549 19.5537 5.32792 19.7132C4.99598 20.3359 4.49724 20.8539 3.88756 21.2091C3.27789 21.5644 2.58134 21.7429 1.87595 21.7247C0.390839 21.7247 -0.817251 20.2632 -0.848331 18.4457C-0.849007 18.402 -0.844615 18.359 -0.842114 18.3156C-0.771778 19.842 0.253815 21.0541 1.51258 21.0541C1.55508 21.0541 1.59656 21.0489 1.63839 21.0462C1.67366 21.0447 1.70865 21.0438 1.74372 21.0398C2.93965 20.8968 3.87409 19.6574 3.87409 18.1486C3.84733 17.4443 3.61218 16.7638 3.19843 16.1932C2.78468 15.6226 2.21092 15.1876 1.54981 14.9432L1.55042 14.9443Z" fill="#9B9B9A" stroke="#9B9B9A" stroke-width="0.4" stroke-linecap="round" stroke-linejoin="round"/>
<path d="M6.50876 10.9983C6.50931 11.2434 6.60091 11.4797 6.76604 11.662C6.93116 11.8443 7.15822 11.9597 7.40376 11.9863V11.9976H16.3538V11.9863C16.3908 11.9921 16.4282 11.9959 16.4657 11.9976C16.728 11.9905 16.9773 11.8821 17.1603 11.6955C17.3434 11.5088 17.4458 11.2587 17.4458 10.9982C17.4458 10.7377 17.3434 10.4875 17.1603 10.3009C16.9773 10.1142 16.728 10.0059 16.4657 9.9988C16.4282 10.0005 16.3908 10.0042 16.3538 10.0101V9.98749C16.3908 9.99336 16.4282 9.99713 16.4657 9.9988C16.6002 10.0024 16.7341 9.97924 16.8595 9.93065C16.9849 9.88205 17.0992 9.80901 17.1956 9.71585C17.2921 9.62269 17.3687 9.5113 17.4211 9.38825C17.4734 9.26519 17.5004 9.13298 17.5004 8.99941C17.5004 8.86584 17.4734 8.73362 17.4211 8.61057C17.3687 8.48752 17.2921 8.37612 17.1956 8.28296C17.0992 8.1898 16.9849 8.11676 16.8595 8.06817C16.7341 8.01957 16.6002 7.9964 16.4657 8.00002C16.4282 8.00165 16.3908 8.00543 16.3538 8.01132V7.98871C16.3908 7.9946 16.4282 7.99838 16.4657 8.00002C16.6604 8.00109 16.8513 7.94615 17.0152 7.84182C17.1791 7.7375 17.309 7.58827 17.3892 7.41219C17.4695 7.23611 17.4966 7.04073 17.4672 6.84969C17.4379 6.65865 17.3534 6.48014 17.224 6.33577C17.0945 6.19139 16.9257 6.08733 16.738 6.03618C16.5502 5.98503 16.3515 5.98898 16.1659 6.04756C15.9803 6.10613 15.8159 6.21682 15.6924 6.36623C15.5689 6.51564 15.4917 6.69737 15.4701 6.88942H15.2238C15.1978 6.64527 15.0816 6.41931 14.8977 6.25509C14.7138 6.09087 14.4752 6 14.2278 6C13.9804 6 13.7418 6.09087 13.5579 6.25509C13.374 6.41931 13.2578 6.64527 13.2318 6.88942H12.9857C12.9597 6.64527 12.8435 6.41931 12.6596 6.25509C12.4757 6.09087 12.2371 6 11.9897 6C11.7423 6 11.5037 6.09087 11.3198 6.25509C11.1359 6.41931 11.0197 6.64527 10.9937 6.88942H10.7474C10.7206 6.64595 10.6042 6.42087 10.4205 6.25736C10.2367 6.09385 9.99863 6.00341 9.75184 6.00341C9.50504 6.00341 9.26694 6.09385 9.0832 6.25736C8.89946 6.42087 8.78303 6.64595 8.75624 6.88942H8.50986C8.48921 6.70266 8.4158 6.52548 8.29808 6.37833C8.18036 6.23118 8.02313 6.12004 7.84452 6.05773C7.66591 5.99542 7.47319 5.98446 7.28858 6.02614C7.10397 6.06781 6.93499 6.16042 6.80111 6.29327C6.66724 6.42613 6.57393 6.59382 6.53193 6.77703C6.48994 6.96023 6.50097 7.15149 6.56376 7.32874C6.62656 7.50599 6.73855 7.66202 6.88683 7.77884C7.03511 7.89566 7.21364 7.96852 7.40184 7.98901V8.01161C7.1565 8.0382 6.92969 8.15374 6.76492 8.33608C6.60016 8.51842 6.50903 8.75471 6.50903 8.99963C6.50903 9.24454 6.60016 9.48083 6.76492 9.66317C6.92969 9.84551 7.1565 9.96106 7.40184 9.98764V10.0102C7.15629 10.0368 6.92924 10.1523 6.76411 10.3346C6.59899 10.5168 6.50738 10.7531 6.50684 10.9983H6.50876Z" fill="#1E50A0"/>
<path d="M17.47 13.0018C17.4694 12.7566 17.3778 12.5203 17.2127 12.3381C17.0476 12.1558 16.8205 12.0403 16.575 12.0137V12.0024H7.62496V12.0137C7.58791 12.0079 7.55054 12.0041 7.51305 12.0024C7.25069 12.0095 7.00146 12.1179 6.8184 12.3045C6.63535 12.4912 6.53292 12.7414 6.53292 13.0018C6.53292 13.2623 6.63535 13.5125 6.8184 13.6991C7.00146 13.8858 7.25069 13.9942 7.51305 14.0012C7.55055 13.9996 7.58791 13.9958 7.62496 13.9899V14.0125C7.58791 14.0066 7.55055 14.0029 7.51305 14.0012C7.25069 14.0083 7.00146 14.1167 6.8184 14.3033C6.63535 14.49 6.53292 14.7402 6.53292 15.0006C6.53292 15.2611 6.63535 15.5113 6.8184 15.6979C7.00146 15.8846 7.25069 15.9929 7.51305 16C7.55054 15.9983 7.58791 15.9946 7.62496 15.9887V16.0113C7.58791 16.0054 7.55054 16.0017 7.51305 16C7.31833 15.9989 7.12747 16.0539 6.96356 16.1582C6.79964 16.2625 6.66971 16.4118 6.58948 16.5878C6.50925 16.7639 6.48216 16.9593 6.51149 17.1503C6.54082 17.3414 6.62532 17.5199 6.75474 17.6643C6.88417 17.8086 7.05299 17.9127 7.24077 17.9638C7.42855 18.015 7.62724 18.011 7.81281 17.9525C7.99837 17.8939 8.16285 17.7832 8.28635 17.6338C8.40984 17.4844 8.48706 17.3027 8.50865 17.1106H8.75503C8.78182 17.3541 8.89825 17.5791 9.08199 17.7427C9.26573 17.9062 9.50383 17.9966 9.75063 17.9966C9.99742 17.9966 10.2355 17.9062 10.4193 17.7427C10.603 17.5791 10.7194 17.3541 10.7462 17.1106H10.9925C11.0185 17.3547 11.1347 17.5807 11.3186 17.7449C11.5025 17.9092 11.7411 18 11.9885 18C12.2359 18 12.4745 17.9092 12.6584 17.7449C12.8423 17.5807 12.9585 17.3547 12.9845 17.1106H13.2308C13.2568 17.3547 13.3729 17.5807 13.5568 17.7449C13.7407 17.9092 13.9793 18 14.2267 18C14.4741 18 14.7128 17.9092 14.8967 17.7449C15.0806 17.5807 15.1967 17.3547 15.2227 17.1106H15.469C15.4897 17.2974 15.5631 17.4745 15.6808 17.6217C15.7985 17.7688 15.9557 17.88 16.1343 17.9423C16.313 18.0046 16.5057 18.0156 16.6903 17.9739C16.8749 17.9322 17.0439 17.8396 17.1778 17.7067C17.3116 17.5739 17.4049 17.4062 17.4469 17.223C17.4889 17.0398 17.4779 16.8485 17.4151 16.6713C17.3523 16.494 17.2403 16.338 17.092 16.2212C16.9438 16.1044 16.7652 16.0315 16.577 16.011V15.9884C16.8224 15.9618 17.0492 15.8463 17.2139 15.6639C17.3787 15.4816 17.4698 15.2453 17.4698 15.0004C17.4698 14.7555 17.3787 14.5192 17.2139 14.3368C17.0492 14.1545 16.8224 14.039 16.577 14.0124V13.9898C16.8226 13.9632 17.0496 13.8478 17.2148 13.6655C17.3799 13.4832 17.4715 13.2469 17.472 13.0018H17.47Z" fill="#D22F27"/>
<path d="M10.5542 8.61507C10.5322 8.48511 10.4194 8.38952 10.2866 8.3882C10.1538 8.38687 10.0392 8.4802 10.0145 8.60969C9.98973 8.7396 9.97701 8.87148 9.97647 9.00368C9.96484 9.27175 10.0077 9.53942 10.1025 9.79076C10.198 10.044 10.3442 10.2754 10.5324 10.471C10.7206 10.6665 10.9468 10.8222 11.1973 10.9285C11.4478 11.0349 11.7175 11.0897 11.9899 11.0897C12.2624 11.0897 12.5321 11.0349 12.7826 10.9285C13.0331 10.8222 13.2593 10.6665 13.4475 10.471C13.6356 10.2754 13.7819 10.044 13.8774 9.79076C13.9722 9.53942 14.0151 9.27174 14.0034 9.00367C14.0029 8.87151 13.9902 8.73967 13.9655 8.6098C13.9408 8.48027 13.8262 8.3869 13.6934 8.3882C13.5606 8.38949 13.4478 8.48509 13.4257 8.61507C13.3681 8.95477 13.1925 9.26376 12.9295 9.48856C12.6676 9.71239 12.3354 9.83872 11.99 9.84594C11.6445 9.83872 11.3123 9.71239 11.0504 9.48856C10.7874 9.26376 10.6119 8.95477 10.5542 8.61507Z" fill="white"/>
<path d="M10.1093 13.0239C10.1787 13.0239 10.2452 13.0513 10.2943 13.1C10.3433 13.1487 10.3709 13.2147 10.3709 13.2836V15.3609C10.3709 15.395 10.3641 15.4287 10.351 15.4602C10.3378 15.4917 10.3186 15.5204 10.2943 15.5445C10.27 15.5686 10.2411 15.5877 10.2094 15.6007C10.1777 15.6138 10.1436 15.6205 10.1093 15.6205C10.0749 15.6205 10.0409 15.6138 10.0092 15.6007C9.97742 15.5877 9.94858 15.5686 9.92428 15.5445C9.89999 15.5204 9.88072 15.4917 9.86757 15.4602C9.85442 15.4287 9.84766 15.395 9.84766 15.3609V13.2836C9.84766 13.2147 9.87522 13.1487 9.92428 13.1C9.97335 13.0513 10.0399 13.0239 10.1093 13.0239Z" fill="#F1B31C"/>
<path d="M8.97841 13.6699C8.99559 13.6404 9.01846 13.6145 9.04572 13.5937C9.07298 13.5729 9.10409 13.5577 9.13728 13.5489C9.17047 13.5401 9.20508 13.5378 9.23915 13.5423C9.27322 13.5467 9.30607 13.5578 9.33582 13.5748L11.1488 14.6135C11.2088 14.6479 11.2527 14.7046 11.2706 14.7711C11.2886 14.8376 11.2792 14.9085 11.2445 14.9681C11.2274 14.9976 11.2045 15.0235 11.1772 15.0443C11.15 15.065 11.1189 15.0803 11.0857 15.0891C11.0525 15.0979 11.0179 15.1002 10.9838 15.0957C10.9497 15.0913 10.9169 15.0802 10.8871 15.0632L9.0742 14.0245C9.04444 14.0075 9.01836 13.9848 8.99744 13.9577C8.97652 13.9307 8.96117 13.8998 8.95228 13.8668C8.94338 13.8339 8.94111 13.7996 8.9456 13.7657C8.95008 13.7319 8.96123 13.6994 8.97841 13.6699Z" fill="#F1B31C"/>
<path d="M8.9784 14.9691C8.94372 14.9095 8.93432 14.8386 8.95227 14.7721C8.97022 14.7056 9.01404 14.6489 9.07411 14.6145L10.887 13.5758C10.9168 13.5588 10.9496 13.5477 10.9837 13.5432C11.0178 13.5388 11.0524 13.541 11.0856 13.5499C11.1188 13.5587 11.1499 13.5739 11.1771 13.5947C11.2044 13.6154 11.2273 13.6413 11.2445 13.6709C11.2791 13.7305 11.2885 13.8013 11.2706 13.8678C11.2526 13.9343 11.2088 13.991 11.1487 14.0255L9.33581 15.0641C9.30605 15.0812 9.2732 15.0923 9.23914 15.0967C9.20507 15.1012 9.17045 15.0989 9.13727 15.0901C9.10408 15.0812 9.07296 15.066 9.04571 15.0453C9.01845 15.0245 8.99558 14.9986 8.9784 14.9691Z" fill="#F1B31C"/>
<path d="M13.8681 13.0239C13.9375 13.0239 14.004 13.0513 14.0531 13.1C14.1021 13.1487 14.1297 13.2147 14.1297 13.2836V15.3609C14.1297 15.395 14.1229 15.4287 14.1098 15.4602C14.0966 15.4917 14.0774 15.5204 14.0531 15.5445C14.0288 15.5686 13.9999 15.5877 13.9682 15.6007C13.9364 15.6138 13.9024 15.6205 13.8681 15.6205C13.8337 15.6205 13.7997 15.6138 13.7679 15.6007C13.7362 15.5877 13.7074 15.5686 13.6831 15.5445C13.6588 15.5204 13.6395 15.4917 13.6264 15.4602C13.6132 15.4287 13.6064 15.395 13.6064 15.3609V13.2836C13.6064 13.2147 13.634 13.1487 13.6831 13.1C13.7321 13.0513 13.7987 13.0239 13.8681 13.0239Z" fill="#F1B31C"/>
<path d="M12.7287 13.6699C12.7634 13.6102 12.8205 13.5667 12.8876 13.5489C12.9546 13.5311 13.026 13.5404 13.0861 13.5748L14.899 14.6135C14.9591 14.6479 15.0029 14.7046 15.0209 14.7711C15.0388 14.8376 15.0295 14.9084 14.9948 14.9681C14.9776 14.9976 14.9547 15.0235 14.9275 15.0443C14.9002 15.065 14.8691 15.0802 14.8359 15.0891C14.8027 15.0979 14.7681 15.1001 14.734 15.0957C14.7 15.0912 14.6671 15.0802 14.6374 15.0631L12.8252 14.0245C12.7954 14.0074 12.7693 13.9847 12.7484 13.9577C12.7275 13.9306 12.7121 13.8997 12.7033 13.8668C12.6944 13.8339 12.6921 13.7995 12.6966 13.7657C12.7011 13.7319 12.7115 13.6994 12.7287 13.6699Z" fill="#F1B31C"/>
<path d="M12.7284 14.969C12.6937 14.9094 12.6843 14.8386 12.7023 14.7721C12.7202 14.7056 12.7641 14.6489 12.8242 14.6144L14.6371 13.5758C14.6972 13.5414 14.7686 13.532 14.8356 13.5499C14.9026 13.5677 14.9597 13.6112 14.9944 13.6708C15.0116 13.7004 15.0228 13.733 15.0273 13.7668C15.0317 13.8006 15.0295 13.8349 15.0206 13.8679C15.0117 13.9008 14.9963 13.9317 14.9754 13.9587C14.9545 13.9858 14.9284 14.0085 14.8986 14.0255L13.0865 15.0642C13.0567 15.0812 13.0239 15.0923 12.9898 15.0967C12.9557 15.1012 12.9211 15.0989 12.8879 15.0901C12.8547 15.0813 12.8236 15.0661 12.7964 15.0453C12.7691 15.0245 12.7456 14.9986 12.7284 14.969Z" fill="#F1B31C"/>
</g>
</g>
<defs>
<clipPath id="clip0_293_48910">
<rect width="24" height="24" fill="white"/>
</clipPath>
</defs>
</svg>
