<svg width="24" height="24" viewBox="0 0 24 24" fill="none" xmlns="http://www.w3.org/2000/svg">
<g clip-path="url(#clip0_293_48499)">
<path d="M24 12C24 18.6274 18.6274 24 12 24C5.37262 24 0 18.6274 0 12C0 12.0029 12 0.0013125 12 0C18.6274 0 24 5.37262 24 12Z" fill="#0052B4"/>
<path d="M17.5889 16.0455C17.3665 16.2679 16.9217 16.4903 16.6252 16.2679C16.2174 16.342 16.4398 16.4532 16.0692 16.1937C15.8097 16.2679 15.7356 16.2679 15.3649 16.1196C15.1795 16.4532 14.9571 16.5274 14.6606 16.3049C14.6977 16.2308 14.7718 16.1567 14.8089 16.0825C14.8089 16.2308 14.2158 16.1937 14.1787 16.1937C14.5123 15.1188 15.8838 14.2291 16.6623 13.4878C17.0329 14.155 18.0338 15.23 17.5889 16.0455Z" fill="#6A4C2D"/>
<path d="M19.1457 16.1565H19.7018L19.4423 16.0453L21.6293 15.9341L21.3327 15.8229L21.0362 15.4522L19.7018 15.341L19.5905 15.1557L18.8863 15.0815L18.4785 15.3781L18.7751 16.1194L19.1457 16.1565Z" fill="white"/>
<path d="M19.1457 12.1163C19.1828 12.0793 19.331 12.0422 19.294 11.8568C19.294 11.6715 19.1086 11.6344 18.9974 11.6344C18.8862 11.6344 18.8121 11.7086 18.8121 11.7086L18.4785 11.5232C18.4785 11.5232 18.6267 10.5224 18.8121 10.4483C18.9604 10.3371 18.9974 10.2629 18.9974 10.2629L18.9233 10.1517L17.8854 10.0405L16.8846 10.1517C16.8846 10.1517 16.8104 10.2629 16.8104 10.3C16.8104 10.3371 16.8104 10.4112 16.9958 10.5224C17.1811 10.6707 17.3294 11.5232 17.3294 11.5232L17.0328 11.6344C17.0328 11.6344 16.9216 11.5974 16.8846 11.5974C16.8475 11.5974 16.6992 11.6715 16.6992 11.8568C16.6992 12.0422 16.8475 12.1534 16.8475 12.1534C16.8475 12.1534 17.8113 12.0422 17.9225 12.3017C18.1078 12.0793 19.0345 12.1905 19.1457 12.1163Z" fill="#656263"/>
<path d="M20.1466 11.0784C20.2207 10.856 20.369 10.856 20.5914 10.856C21.0362 10.856 20.9991 11.0042 21.1474 11.3749C21.3327 11.8939 21.6663 12.4128 21.7034 13.0059C21.7405 13.636 21.7405 14.4886 21.4439 15.0446C21.2215 15.4524 21.7034 15.5636 22 15.7118L21.7775 15.6377L22 15.823L21.7405 15.7118L21.8888 15.8601L21.5181 15.6748L21.6663 15.823L21.3698 15.6748C21.4069 15.7489 21.481 15.786 21.5181 15.8601C21.4439 15.823 21.3698 15.786 21.2586 15.7489V15.823C20.9621 15.6006 20.5172 15.5636 20.406 15.23C20.2578 14.8593 19.9612 14.3033 19.9983 13.8955C20.1095 13.043 20.369 11.9309 20.1466 11.0784Z" fill="#3E4347"/>
<path d="M17.3671 15.3042L17.2559 15.6749L17.4041 15.4895V15.8602L17.5153 15.6749V16.1197L17.6265 15.8973V16.305L17.7377 16.1197L17.8119 16.4904L17.9231 16.2309L18.0714 16.5274L18.1084 16.305L18.3308 16.5645V16.305L18.5903 16.5274V16.3792L18.8498 16.4904V16.3421L19.1463 16.4162L18.961 16.2309H19.1463L18.8498 16.0456H18.998L18.7386 15.8231H18.9239L18.6274 15.6007L18.7756 15.5637L17.3671 15.3042Z" fill="#00713D"/>
<path d="M16.5879 12.2275H17.4034C17.4034 12.2275 17.9223 12.2275 17.9965 12.4128C18.1077 12.1904 18.5525 12.1904 18.5525 12.1904C18.812 12.1904 19.1085 12.1533 19.368 12.1533V14.155C19.2197 14.9334 18.6266 15.4894 18.0335 15.7118C17.2922 15.4894 16.8103 14.8593 16.662 14.155C16.662 13.4878 16.625 12.8576 16.5879 12.2275Z" fill="white"/>
<path d="M16.8848 12.2275L18.0339 15.3411L19.0718 12.1533C18.7382 12.1904 18.0339 12.1163 17.9597 12.4128C17.8485 12.1163 17.1072 12.2275 16.8848 12.2275Z" fill="#006B00"/>
<path d="M17.3669 7.18617L18.0341 6.63015L18.1453 6.22241L17.997 6.29654L17.96 6.1112L17.9229 6.07414L17.8858 6.14827L17.8117 6L17.7005 6.14827L17.8858 6.51895L17.7005 6.81549L17.6264 6.63015L17.7005 6.40775L17.5893 6.44481V6.22241L17.441 6.37068L17.404 6.33361L17.5522 6.77842L17.441 6.92669L17.2557 6.44481L17.2186 6.55602L17.1445 6.48188L17.1816 6.74136H17.1074L17.2186 6.88963L17.1074 7.0379L17.3298 6.96376L17.2557 7.11203L17.3669 7.18617Z" fill="#CDAD56"/>
<path d="M16.8479 7.18633L16.2548 6.66739L16.2178 6.29671L16.2919 6.37084L16.366 6.18551L16.4402 6.29671L16.5514 6.14844L16.6255 6.25964L16.4031 6.59325L16.5514 6.85273L16.6255 6.66739L16.5143 6.51912H16.6626V6.33378L16.7738 6.44498L16.8479 6.33378L16.6626 6.81566L16.7367 6.92686L16.885 6.55618L16.9591 6.63032L17.0333 6.55618L16.9962 6.77859H17.0703L17.0333 6.92686L17.0703 7.03806L16.885 6.96393L16.9221 7.1122L16.8479 7.18633Z" fill="#CDAD56"/>
<path d="M18.9228 12.6723L18.8116 12.524L18.9598 12.3387L18.7374 12.3757L18.7004 12.1533L18.5892 12.4499L18.3668 12.3387L18.515 12.524L18.1073 12.8205L18.2185 12.8576L18.0702 12.8947L18.1073 12.9688L17.9961 13.0059L18.0702 13.0429H17.7737V12.8205H18.0702L17.9219 12.524L17.8107 12.5981L17.7366 12.4869L17.4771 12.5611L17.6254 12.3757L17.403 12.4869L17.3659 12.2275L17.3289 12.4499L17.1064 12.4128L17.2918 12.5611L17.1435 12.7464L17.3289 12.6723L17.403 12.8947L17.4401 12.7464L17.5513 12.8205H17.5883L17.6254 13.5619L17.5513 13.7102L17.5883 13.6731L17.6995 13.9326L17.7366 13.7102L17.9219 13.636L18.0331 13.599L18.1073 13.636L18.1443 13.8584L17.959 14.1179H17.7366L17.6625 14.2291L17.8849 14.1179V14.2291L17.9961 14.1179V14.192L18.0702 14.155L17.8849 14.6739L18.0702 14.5257V14.7481L18.1443 14.5998L18.2185 14.5257L18.2555 14.5998V14.4145L18.3297 14.4515L18.2555 14.192L18.3668 14.2662L18.2926 13.9326L18.5892 13.7843V13.636H18.478L18.5521 13.4878L18.5892 13.2654V13.3766V13.1912L18.7004 13.2283L18.6262 13.1171L18.7745 13.0429H18.7004L18.8857 12.8576L18.4038 13.1912L18.3668 13.8214L18.2185 13.1171L18.2926 13.2283L18.3668 12.9317L18.515 12.9688L18.4409 12.8576L18.515 12.8947L18.4038 12.8205L18.5521 12.7835L18.4038 12.6723L18.5892 12.5981V12.8205L18.6633 12.5981L18.9228 12.6723ZM17.7366 13.4878L17.7737 13.2283L18.0702 13.1912L17.7366 13.4878Z" fill="#FFC900"/>
<path d="M15.4385 18.6769C15.5497 18.6399 16.1798 18.8252 16.4393 19.0847C16.4022 18.6028 16.254 18.2692 16.254 18.2692C16.254 18.2692 15.8833 18.158 15.8092 18.1951C15.735 18.2692 15.5126 18.5287 15.4385 18.6769Z" fill="#ED4C5C"/>
<path d="M15.2163 16.5269C15.1792 16.5269 15.1422 16.5639 15.068 16.6381C15.031 16.7493 14.9939 17.0829 14.9198 17.157C14.8456 17.2311 14.7715 17.2311 14.7715 17.3053C14.7715 17.3794 14.7715 17.5277 14.9939 17.6018C15.1792 17.6018 15.5128 17.2682 15.5128 17.2682C15.5128 17.2682 15.6611 17.0829 15.7352 16.8975C15.3646 17.0087 15.1051 16.6751 15.2163 16.5269Z" fill="#ED4C5C"/>
<path d="M20.8504 18.6027C20.7392 18.5657 20.072 18.751 19.8496 19.0105C19.8867 18.5286 20.0349 18.195 20.0349 18.195C20.072 18.195 20.4056 18.0838 20.4427 18.1208C20.5168 18.195 20.7392 18.4545 20.8504 18.6027Z" fill="#ED4C5C"/>
<path d="M20.9985 16.4531C21.0356 16.4531 21.0726 16.5273 21.1097 16.6014C21.1468 16.7126 21.2209 16.8979 21.295 16.9721C21.3692 17.0462 21.4433 17.1574 21.4433 17.2315C21.4433 17.3057 21.4433 17.3798 21.2209 17.454C21.0356 17.454 20.739 17.1945 20.739 17.1945C20.739 17.1945 20.5907 17.0091 20.5166 16.8238C20.8873 16.9721 21.1468 16.6014 20.9985 16.4531Z" fill="#ED4C5C"/>
<path d="M20.4431 17.4168C20.5913 17.2685 20.7025 17.1944 20.7025 17.1944C20.7025 17.1944 20.5172 16.972 20.4801 16.8237C20.8508 17.0091 21.3327 16.416 20.7767 16.3789C20.406 16.416 20.0724 16.7125 19.85 17.0832C18.7009 16.5272 17.3664 16.5642 16.2915 17.1203C16.0691 16.7496 15.7725 16.453 15.4018 16.453C14.8458 16.4901 15.3648 17.0832 15.6984 16.8979C15.6613 17.0461 15.476 17.2685 15.476 17.2685C15.476 17.2685 15.5872 17.3056 15.7355 17.4539C15.4389 17.6763 15.1794 17.9358 14.957 18.2694C14.957 18.2694 15.3648 18.5288 15.3648 18.6771C15.5501 18.4176 15.7725 18.1582 16.0691 17.9728C16.2173 18.2323 16.3285 18.603 16.4027 19.1219C16.4027 19.1219 16.6251 18.5288 16.7363 18.5288C16.8104 18.5288 16.7363 18.1211 16.5509 17.7133C17.4406 17.2685 18.5897 17.1944 19.5534 17.6392C19.3681 18.047 19.331 18.4176 19.3681 18.5288C19.4793 18.5288 19.7388 19.0478 19.7388 19.0478C19.8129 18.5659 19.9241 18.1952 20.0724 17.9358C20.3319 18.1211 20.5543 18.3435 20.7767 18.603C20.9991 18.3435 21.1844 18.2323 21.1844 18.2323C20.9991 17.8987 20.7396 17.6392 20.4431 17.4168Z" fill="#FFCE31"/>
<path d="M19.1088 12.1533H19.2571L18.9606 12.524L19.2942 12.9317L18.627 13.7843L19.2571 14.5257C19.183 14.711 19.1088 14.8593 18.9976 14.9705L18.627 14.5627L19.2942 13.7472L18.7752 13.1542L19.1088 12.1533Z" fill="#1E5AA6"/>
<path d="M16.8474 12.2275H16.6621L16.9586 12.5611L16.625 12.9689L17.3293 13.7103L16.7733 14.4887C16.8474 14.674 16.9586 14.8594 17.0327 14.9706L17.3664 14.5257L16.6621 13.7473L17.181 13.0801L16.8474 12.2275Z" fill="#1E5AA6"/>
<path d="M17.6257 14.229L17.3662 14.5626L18.2558 15.6005C18.4041 15.5264 18.5524 15.4152 18.6636 15.341L18.2188 14.8221L18.4041 14.2661L18.6636 14.5626L17.811 15.6376C17.6628 15.5634 17.5145 15.4893 17.3662 15.3781L17.811 14.8221L17.6257 14.229Z" fill="#1E5AA6"/>
<path d="M17.3662 13.747L17.5145 13.9323L17.4033 13.6729L17.3662 13.747Z" fill="#1E5AA6"/>
<path d="M18.5156 13.8953L18.6639 13.747L18.5898 13.6729L18.5156 13.8953Z" fill="#1E5AA6"/>
<path d="M20.146 11.5229C20.2202 11.5229 20.665 11.5229 20.665 11.5971C20.4796 11.6712 20.3684 11.7824 20.2572 11.9678C20.3684 12.1531 20.4796 12.3014 20.5908 12.4867C20.6279 12.8574 20.109 13.2281 20.146 13.7841C20.1831 14.1918 20.1831 14.5996 20.5167 14.859C20.9245 15.2297 20.7391 14.0806 20.7762 13.9694C20.7762 13.8953 21.1839 14.3401 21.1839 14.4884C21.1469 14.8961 20.9986 14.6737 20.9986 14.7849C20.8874 15.1927 20.8874 15.4521 20.5167 15.4521C19.9978 15.1556 19.5159 12.1902 20.146 11.5229Z" fill="#F5F5F5"/>
<path d="M18.6278 10.8188C18.6278 10.8188 19.0356 11.2637 19.3321 11.2637C19.3692 11.4119 19.2209 11.5231 19.1468 11.5602C18.9985 11.5231 18.8873 11.5602 18.5537 11.1895C18.5908 10.9671 18.6649 10.8559 18.6278 10.8188Z" fill="white"/>
<path d="M19.2207 9.78089C19.2578 9.59556 19.369 9.48435 19.4802 9.48435C19.4431 9.37315 19.6655 8.78007 20.3327 8.59473C20.3698 8.89127 20.0733 9.15074 20.0733 9.15074C20.0733 9.15074 21.037 9.00247 21.2224 8.743C21.1853 8.8542 21 9.52142 19.9991 9.52142C20.3698 9.8921 19.8879 10.1886 19.6655 10.0774C19.9991 9.7809 19.4802 9.59556 19.2207 9.78089Z" fill="white"/>
<path d="M19.1464 11.5971C19.1464 11.5971 19.6654 11.7453 19.7395 11.004C19.6283 10.6704 19.48 9.96608 19.7024 9.78074C19.48 9.63247 19.2576 9.78074 19.2576 9.78074C19.2576 9.81781 19.0352 10.0773 19.2947 10.5962C18.6645 10.448 18.924 11.041 18.924 11.041C18.9611 10.9669 19.2947 10.8557 19.3688 11.3376C19.3688 11.4117 19.1094 11.5971 19.1464 11.5971Z" fill="#0000FF"/>
<path d="M19.703 11.0038C19.703 11.0038 20.259 10.7072 20.2219 10.0029C19.7401 10.0029 19.5918 10.6331 19.5918 10.6331L19.703 11.0038Z" fill="#0000FF"/>
<path d="M17.2547 10.9668C17.2547 10.9668 16.847 11.3375 16.6246 11.1892C16.4392 11.3004 16.2539 11.1151 16.2539 11.1151C16.2539 11.1151 16.4763 11.9676 17.3289 11.3375L17.2547 10.9668Z" fill="white"/>
<path d="M16.6258 11.1895C16.6629 11.0042 16.8112 10.93 16.9224 11.0783C17.0706 11.1154 17.2189 10.4852 16.7 10.5964C16.8482 9.78092 16.4034 9.48438 16.4034 9.48438C16.4034 9.48438 16.2552 10.374 16.3293 10.5593C16.4034 10.7447 16.2181 10.2628 15.625 10.1145C15.625 10.7817 16.2922 11.1154 16.2922 11.1154C16.2922 11.1154 16.4405 11.2636 16.6258 11.1895Z" fill="#0000FF"/>
<path d="M16.2911 9.818C16.2911 9.818 15.9204 9.818 16.1428 10.2258C15.9575 10.2628 15.5868 10.0404 15.8463 9.7068C14.9937 9.66973 14.623 9.26199 14.623 8.89131C14.8825 9.15078 15.4756 9.03958 15.698 9.22492C15.4385 8.96545 15.4756 8.63184 15.4756 8.63184C15.4756 8.63184 16.217 8.85424 16.3652 9.52146C16.3282 9.5956 16.2911 9.818 16.2911 9.818Z" fill="white"/>
<path d="M16.9594 9.59532C16.9223 9.66945 16.9223 9.74359 16.8852 9.78065C17.5895 9.78065 18.2568 9.81772 18.961 9.81772C18.924 9.59532 18.7757 9.37291 18.7016 9.18757C18.7386 9.0393 18.7386 8.77982 18.7757 8.59449C18.8128 8.40915 18.5162 8.37208 18.5904 8.18674C18.5533 8.26088 18.8128 8.18674 18.8128 8.18674C18.7016 8.18674 18.6645 7.81606 18.5533 7.77899C18.2938 7.70486 18.1826 7.77899 17.9602 7.77899C17.6637 7.77899 17.2189 7.779 17.293 7.33418C17.4413 7.37125 17.6266 7.33418 17.6637 7.18591C17.6266 7.14884 17.1447 7.07471 17.0706 7.07471C16.9964 7.07471 16.4775 7.22298 16.4404 7.26005C16.5887 7.44538 16.737 7.40832 16.8852 7.55659C16.9594 7.63072 16.9964 7.96433 16.9223 7.92727H16.9964C16.9594 7.96433 16.9223 8.0014 16.9223 8.03847H17.0706C17.0335 8.1126 16.9964 8.14967 16.9594 8.22381H17.1447C17.1077 8.29794 17.1076 8.33501 17.0706 8.40915C17.1076 8.40915 17.1447 8.37208 17.2189 8.37208C17.3671 8.70569 17.1077 9.26171 16.9594 9.59532ZM18.5162 9.22464C18.5904 9.18757 18.5904 9.18757 18.5162 9.22464V9.22464ZM18.4421 8.52035C18.7386 8.52035 18.5904 9.18757 18.4792 9.22464C18.1826 9.26171 18.2197 8.52035 18.4421 8.52035ZM17.7007 8.74276C17.5895 8.14967 18.4421 8.33501 18.1826 8.77982C18.1455 8.85396 17.9602 9.26171 17.9602 9.26171C17.7378 9.26171 17.6637 8.9281 17.7007 8.74276ZM17.3301 9.11343C17.4783 8.9281 17.2189 8.48328 17.5525 8.37208C17.5525 8.63155 17.5525 9.00223 17.4042 9.26171C17.3671 9.18757 17.3301 9.1505 17.2559 9.18757C17.293 9.18757 17.3301 9.1505 17.3301 9.11343Z" fill="#923F00"/>
<path d="M16.8846 10.3738L17.9225 11.041L18.8492 10.4109C18.8492 10.4109 19.0346 10.2997 19.0346 10.2255C19.0346 10.1514 18.9604 10.1885 18.9234 10.1885L17.9596 10.8557L16.9588 10.2255C16.9588 10.2255 16.8846 10.1885 16.8846 10.2626C16.8476 10.3367 16.8846 10.3738 16.8846 10.3738Z" fill="#B4B6B9"/>
<path d="M20.3326 15.3408L19.9619 15.3779L20.0731 15.4891H20.555L20.3326 15.3408Z" fill="#FF7000"/>
<path d="M20.184 11.1152L19.7021 11.3747L19.8134 11.4859H20.2952L20.184 11.1152Z" fill="#FF7000"/>
<path d="M20.0732 15.5634L20.2956 15.7117L20.9258 15.6005L20.7405 15.4893L20.0732 15.5634Z" fill="#FF7000"/>
<path d="M19.9612 12.3389C19.8871 12.3018 19.6647 12.2647 19.3682 12.4501V13.0802C19.3682 13.0802 19.7759 12.8578 19.9983 12.8949C19.9983 12.7466 19.9983 12.4871 19.9612 12.3389Z" fill="url(#paint0_linear_293_48499)"/>
<path d="M15.8838 11.7082C15.7726 12.0048 16.1433 12.4496 16.2545 12.7091C16.514 12.4125 16.6252 12.3755 16.6252 12.7832C16.6252 12.8944 16.6622 13.0427 16.6252 13.1539C16.5881 13.2651 16.3286 13.191 16.4398 13.3392C16.6622 13.7099 16.6252 13.9323 16.514 14.303C16.4769 14.4513 16.3286 15.2297 16.1062 15.2668C16.1062 15.2668 16.1433 14.7107 16.1062 14.6366C16.0692 14.5254 15.8838 14.2659 15.958 14.1547C15.8838 14.2659 15.5873 14.7107 15.4019 14.5625C15.4761 14.7478 15.4019 14.8219 15.3649 15.0073C15.3278 15.1185 15.3278 15.2668 15.3278 15.378C15.2907 15.5262 15.0683 15.6745 15.1054 15.8969C14.327 15.6374 13.808 15.0443 14.0675 14.1918C14.1416 14.0064 14.2158 13.8211 14.4011 13.7099C14.5864 13.5616 14.6235 13.3392 14.6976 13.0798C14.7347 13.0056 14.8089 12.8944 14.8089 12.7832C14.7718 12.5608 14.9201 12.4867 14.9201 12.3384C14.9571 12.0789 14.9942 11.7824 14.9942 11.5229C14.9942 11.1152 15.1425 11.1522 15.4761 10.9669C15.5873 10.9298 16.0321 11.004 16.1433 11.0781C16.2174 11.1893 15.958 11.6341 15.8838 11.7082Z" fill="#8A9396"/>
<path d="M16.8477 9.74414H19.0347V10.189H16.8477V9.74414Z" fill="white"/>
<path d="M11.9678 11.9999H11.9999C11.9999 11.9891 11.9999 11.9786 11.9999 11.9678C11.9892 11.9785 11.9785 11.9892 11.9678 11.9999Z" fill="#F0F0F0"/>
<path d="M12 6.26086C12 4.14937 12 2.76586 12 0H11.998C5.37145 0.001125 0 5.37323 0 12H6.26086V8.47448L9.78638 12H11.9679C11.9786 11.9893 11.9893 11.9786 12 11.9679C12 11.1594 12 10.4381 12 9.78647L8.47444 6.26086H12Z" fill="#F0F0F0"/>
<path d="M6.07124 1.56543C4.19441 2.63413 2.63409 4.19441 1.56543 6.07124V12.0002H4.69588V4.69598V4.69588H12.0002C12.0002 3.70855 12.0002 2.76796 12.0002 1.56543H6.07124Z" fill="#D80027"/>
<path d="M11.9999 10.5242L7.73637 6.26074H6.26074V6.26084L11.9998 11.9998H11.9999C11.9999 11.9998 11.9999 10.9823 11.9999 10.5242Z" fill="#D80027"/>
</g>
<defs>
<linearGradient id="paint0_linear_293_48499" x1="422.971" y1="-236.096" x2="422.659" y2="-236.6" gradientUnits="userSpaceOnUse">
<stop stop-color="#D5DFFF"/>
<stop offset="1" stop-color="white"/>
</linearGradient>
<clipPath id="clip0_293_48499">
<rect width="24" height="24" fill="white"/>
</clipPath>
</defs>
</svg>
